<svg t="1700843420216" class="icon" viewBox="0 0 1024 1024" version="1.1" xmlns="http://www.w3.org/2000/svg" p-id="2575" width="30" height="30"><path d="M208.979592 1024h606.040816c115.461224 0 208.979592-93.518367 208.979592-208.979592V208.979592C1024 93.518367 930.481633 0 815.020408 0H208.979592C93.518367 0 0 93.518367 0 208.979592v606.040816c0 115.461224 93.518367 208.979592 208.979592 208.979592z" fill="#FFFFFF" p-id="2576"></path><path d="M397.061224 313.469388c-161.541224 0-292.571429 131.030204-292.571428 292.571428s131.030204 292.571429 292.571428 292.571429 292.571429-131.030204 292.571429-292.571429-131.030204-292.571429-292.571429-292.571428z" fill="#F88448" p-id="2577"></path><path d="M386.612245 689.632653h438.857143c34.586122 0 62.693878-28.107755 62.693877-62.693877V188.081633c0-34.586122-28.107755-62.693878-62.693877-62.693878H386.612245c-34.586122 0-62.693878 28.107755-62.693878 62.693878v438.857143c0 34.586122 28.107755 62.693878 62.693878 62.693877z" fill="#24D1F6" p-id="2578"></path><path d="M386.612245 412.734694c14.419592 0 23.301224 6.373878 26.435918 19.121633 2.925714 11.702857 2.925714 34.481633-0.10449 68.649795-3.134694 35.213061-3.134694 60.081633 0 74.396735 6.791837 31.242449 25.913469 46.811429 57.260409 46.811429 27.376327 0 50.468571-11.180408 69.381224-33.541225 10.03102-11.807347 21.942857-32.600816 35.73551-62.066939 22.360816-47.751837 44.826122-71.57551 67.291429-71.57551 13.061224 0 21.211429 4.388571 24.346122 13.270204 2.925714 8.150204 3.761633 24.450612 2.612245 49.005715-1.044898 23.405714-0.313469 39.810612 2.194286 49.528163 5.955918 22.987755 20.68898 34.481633 43.990204 34.481633 26.540408 0 60.813061-22.465306 102.922449-67.395919 36.257959-38.661224 62.902857-57.991837 79.934694-57.991837 11.493878 0 20.897959-9.404082 20.897959-20.897959s-9.404082-20.897959-20.897959-20.897959c-29.152653 0-65.933061 23.719184-110.445714 71.157551-33.854694 36.153469-57.991837 54.230204-72.411429 54.230204-1.776327 0-3.030204-1.044898-3.552653-3.239184-1.462857-5.537959-1.776327-17.867755-0.835918-36.989387 1.358367-30.093061-0.313469-51.722449-5.015511-64.992653-9.717551-27.376327-31.033469-41.06449-63.738775-41.06449-27.376327 0-50.468571 11.180408-69.381225 33.541224-10.03102 11.807347-21.942857 32.600816-35.73551 62.066939-22.360816 47.751837-44.826122 71.57551-67.291428 71.57551-8.881633 0-14.419592-4.702041-16.404898-14.001632-2.298776-10.13551-1.985306-30.72 0.731428-61.75347 3.448163-38.765714 3.134694-66.35102-0.940408-82.546938-8.463673-33.750204-30.82449-50.677551-66.977959-50.677551-54.961633 0-105.639184 36.257959-152.032653 108.878367-23.928163 37.302857-49.319184 90.697143-76.277551 159.973877A20.960653 20.960653 0 0 0 177.632653 668.734694c9.090612 0 16.718367-5.746939 19.644082-13.792653C259.970612 493.505306 323.082449 412.734694 386.612245 412.734694z" fill="#013B5E" p-id="2579"></path></svg>
