<svg t="1700841760089" class="icon" viewBox="0 0 1024 1024" version="1.1" xmlns="http://www.w3.org/2000/svg" p-id="11933" width="30" height="30"><path d="M630.41845 198.663495c217.427027 0 393.686486 160.049009 393.686487 357.479208 0 197.430775-176.259459 357.479207-393.686487 357.479207-15.763604 0-31.311568-0.841225-46.591423-2.476973L394.656288 1021.336216c-9.414919 5.48382-21.453261 2.229622-26.889225-7.269477a19.999135 19.999135 0 0 1-2.632072-10.368l3.936865-180.202667C287.885261 758.012541 236.731964 662.502054 236.731964 556.143279c0-197.431351 176.259459-357.479784 393.686486-357.479784z" fill="#0086FF" p-id="11934"></path><path d="M453.259532 0.422631c-249.275964 0-452.731964 185.721081-452.731964 416.70054l0.017297 3.592649c1.02573 111.304072 49.696865 215.157622 133.18054 291.660108l1.956325 1.777586-3.692973 169.527927a59.356829 59.356829 0 0 0 7.820684 30.774775l0.494127 0.847568c16.502198 27.781189 52.317982 37.223784 80.370162 20.883603l180.448288-105.099531 0.659604 0.069766a496.61982 496.61982 0 0 0 51.47791 2.665513c249.275964 0 452.731964-185.721081 452.731963-416.699964 0-230.978883-203.456-416.700541-452.731963-416.70054z m0 78.722306c207.320793 0 374.009658 152.159712 374.009657 337.977658 0 185.819099-166.688865 337.978811-374.009657 337.97881-18.658018 0-37.133838-1.233297-55.330595-3.671639l-13.376-1.792577-173.100396 100.819604 3.749477-172.083892-14.645045-12.140973C123.616865 602.446414 79.249874 512.915604 79.249874 417.123171c0-185.819099 166.688865-337.978234 374.009658-337.978234z" fill="#2D2F33" p-id="11935"></path><path d="M256.416288 317.823423a59.579964 59.052973 90 1 0 118.105946 0 59.579964 59.052973 90 1 0-118.105946 0Z" fill="#2D2F33" p-id="11936"></path><path d="M531.996829 317.823423a59.579964 59.052973 90 1 0 118.105946 0 59.579964 59.052973 90 1 0-118.105946 0Z" fill="#2D2F33" p-id="11937"></path></svg>
