<svg t="1689503180455" class="icon" viewBox="0 0 1024 1024" version="1.1" xmlns="http://www.w3.org/2000/svg" p-id="5224" width="16" height="16"><path d="M705.3 928.6H318.8c-72.6 0-131.6-57.2-131.6-127.5V314.2c0-24.9 20.1-45 45-45s45 20.1 45 45v486.9c0 20.7 18.7 37.5 41.6 37.5h386.5c22.9 0 41.6-16.8 41.6-37.5V314.2c0-24.9 20.1-45 45-45s45 20.1 45 45v486.9c0 70.3-59.1 127.5-131.6 127.5z" fill="#333333" p-id="5225"></path><path d="M881 359.2H143c-24.9 0-45-20.1-45-45s20.1-45 45-45h738c24.9 0 45 20.1 45 45s-20.2 45-45 45z" fill="#333333" p-id="5226"></path><path d="M675.9 359.2H348.1V232.3c0-75.1 61.1-136.2 136.2-136.2h55.3c75.1 0 136.2 61.1 136.2 136.2v126.9z m-237.8-90h147.8v-36.8c0-25.5-20.8-46.3-46.3-46.3h-55.3c-25.5 0-46.3 20.7-46.3 46.3v36.8zM616.8 736.5c-24.9 0-45-20.1-45-45V525.3c0-24.9 20.1-45 45-45s45 20.1 45 45v166.3c0 24.8-20.2 44.9-45 44.9zM407.2 736.5c-24.9 0-45-20.1-45-45V525.3c0-24.9 20.1-45 45-45s45 20.1 45 45v166.3c0 24.8-20.1 44.9-45 44.9z" fill="#333333" p-id="5227"></path></svg>
