<svg t="1699627573991" class="icon" viewBox="0 0 1024 1024" version="1.1" xmlns="http://www.w3.org/2000/svg" p-id="35228" width="16" height="16"><path d="M612.693333 170.666667l8.533334 42.666666H402.773333l8.533334-42.666666h201.386666z m-293.632 25.941333a86.186667 86.186667 0 0 0-1.706666 16.725333H170.666667a42.666667 42.666667 0 0 0 0 85.333334h682.666666a42.666667 42.666667 0 1 0 0-85.333334h-146.730666c0-5.504-0.554667-11.093333-1.706667-16.725333l-8.533333-42.666667A85.333333 85.333333 0 0 0 612.778667 85.333333H411.306667a85.333333 85.333333 0 0 0-83.712 68.608l-8.533334 42.666667zM426.666667 469.333333a42.666667 42.666667 0 0 0-42.666667 42.666667v170.666667a42.666667 42.666667 0 1 0 85.333333 0v-170.666667a42.666667 42.666667 0 0 0-42.666666-42.666667z m128 42.666667a42.666667 42.666667 0 1 1 85.333333 0v170.666667a42.666667 42.666667 0 1 1-85.333333 0v-170.666667zM255.402667 384A42.666667 42.666667 0 0 1 298.666667 426.069333L301.738667 640H301.653333a42.666667 42.666667 0 1 1-85.290666-2.176l-2.986667-210.56A42.666667 42.666667 0 0 1 255.36 384z m51.925333 396.586667h0.042667A103.381333 103.381333 0 0 0 406.698667 853.333333h210.602666c54.186667 0 98.56-40.789333 103.210667-92.757333L725.333333 426.069333a42.666667 42.666667 0 0 1 85.333334 1.194667l-4.864 337.365333-0.128 1.365334C798.08 863.872 715.562667 938.666667 617.301333 938.666667H406.698667a188.885333 188.885333 0 0 1-180.096-130.389334 42.666667 42.666667 0 0 1 80.725333-27.648z" fill="#14101C" p-id="35229"></path></svg>
