<svg t="1701003301954" class="icon" viewBox="0 0 1024 1024" version="1.1" xmlns="http://www.w3.org/2000/svg" p-id="1252" width="25" height="25"><path d="M855.3984 533.8112H532.48a41.9328 41.9328 0 0 1-41.9328-41.8816V168.96a41.8304 41.8304 0 0 0-46.08-41.728 409.1904 409.1904 0 1 0 452.7104 452.7616 41.8304 41.8304 0 0 0-41.7792-46.1824z" fill="#CCDAFF" p-id="1253"></path><path d="M943.6672 441.344a409.6 409.6 0 0 0-360.3968-360.448 41.8304 41.8304 0 0 0-46.08 41.728V445.44a41.9328 41.9328 0 0 0 41.9328 41.8816h322.9184a41.7792 41.7792 0 0 0 41.6256-45.9776z" fill="#7A7AF9" p-id="1254"></path></svg>
