<svg t="1701004644234" class="icon" viewBox="0 0 1024 1024" version="1.1" xmlns="http://www.w3.org/2000/svg" p-id="1104" width="25" height="25"><path d="M814.08 937.9328l-284.672-111.0528a61.44 61.44 0 0 0-45.0048 0L210.432 936.96a61.44 61.44 0 0 1-84.0704-56.832V192.8704A104.192 104.192 0 0 1 230.4 88.6272h563.2a104.192 104.192 0 0 1 104.2432 104.2432V880.64A61.44 61.44 0 0 1 814.08 937.9328z" fill="#CCDAFF" p-id="1105"></path><path d="M538.9312 262.0416l39.0656 79.2064a29.7984 29.7984 0 0 0 22.5792 16.384l87.3984 12.6976a30.0032 30.0032 0 0 1 16.64 51.2l-63.232 61.44a30.1568 30.1568 0 0 0-8.6528 26.5728l14.9504 87.04a30.0544 30.0544 0 0 1-43.5712 31.6416l-78.1312-40.96a30.3104 30.3104 0 0 0-27.9552 0l-78.1312 40.96a30.0544 30.0544 0 0 1-43.5712-31.6416l14.9504-87.04a30.1568 30.1568 0 0 0-8.6528-26.5728l-63.232-61.44a30.0032 30.0032 0 0 1 16.64-51.2l87.3984-12.6976a29.7984 29.7984 0 0 0 22.5792-16.384l39.0656-79.2064a30.0544 30.0544 0 0 1 53.8624 0z" fill="#7A7AF9" p-id="1106"></path></svg>
