<svg t="1700839635366" class="icon" viewBox="0 0 1024 1024" version="1.1" xmlns="http://www.w3.org/2000/svg" p-id="63395" width="25" height="25"><path d="M892.16 626.0224s-77.8752 0.8192-87.8592 0c-9.984-0.768-7.5776-11.1616-7.5776-11.1616V546.9696c0-8.7552-1.9968-37.4784-31.5392-39.8848-29.5936-2.4064-39.5264 17.5616-48.7424 59.8528-14.8992 47.7696-49.7152 62.1568-65.4336 66.304h-24.0128c-11.8272 0-21.4016 11.5712-21.4016 25.856v165.0176c0 14.2336 9.6256 25.8048 21.4016 25.8048h27.7504c0.256 0 0.4608 0 0.7168-0.0512h183.3984c18.3808 0 30.3616-13.3632 36.096-21.7088 2.2528-3.328 3.9936-6.9632 5.2224-10.8032 4.4032-13.824 18.432-58.368 30.208-99.2768 4.0448-14.1824 7.8848-27.8528 10.8544-39.7312 13.6192-53.0432-29.0816-52.3264-29.0816-52.3264z" fill="#4B81EE" opacity=".5" p-id="63396"></path><path d="M746.5984 393.7792s-174.6432 1.8432-197.0688 0c-22.3744-1.792-16.9984-25.088-16.9984-25.088V216.4736c0-19.6608-4.4544-84.1728-70.7584-89.5488-66.304-5.3248-88.6272 39.424-109.2608 134.3488-33.4336 107.1104-111.5136 139.4176-146.8416 148.6848H151.8592c-26.5216 0-48.0256 25.9072-48.0256 57.9584v370.176c0 32 21.5552 57.9072 48.0256 57.9072h62.2592c0.512 0 1.024-0.0512 1.5872-0.1024h411.4432c39.2704 0 65.5872-27.3408 79.0016-46.0288 0.7168-0.9216 1.3312-1.792 1.8944-2.6624 5.12-7.5264 9.0112-15.6672 11.7248-24.2688 9.8816-30.976 41.3696-130.9184 67.7376-222.72 3.1744-11.008 6.2464-21.9136 9.216-32.5632 5.632-20.0192 10.8032-39.1168 15.2064-56.4736 30.464-118.9888-65.3312-117.4016-65.3312-117.4016z m-172.6976 204.4928c-8.5504 33.3312-25.3952 86.9376-29.696 100.352-0.8704 2.7648-2.0992 5.376-3.7888 7.7824-4.096 6.0416-12.7488 15.7184-26.0096 15.7184H361.4208c-8.5504 0-15.4624-8.3456-15.4624-18.6368v-119.1424c0-10.2912 6.912-18.6368 15.4624-18.6368h17.3056c11.3664-3.0208 36.5056-13.4144 47.2576-47.872 6.656-30.5664 13.824-45.0048 35.1744-43.264 21.3504 1.7408 22.784 22.4768 22.784 28.8256v48.9984s-1.7408 7.5264 5.4784 8.0896c7.2192 0.5632 63.4368 0 63.4368 0s30.8224-0.512 21.0432 37.7856z" fill="#4B81EE" p-id="63397"></path></svg>
