<svg t="1700660308582" class="icon" viewBox="0 0 1024 1024" version="1.1" xmlns="http://www.w3.org/2000/svg" p-id="46055" width="25" height="25"><path d="M85.333333 85.333333m341.333334 0l170.666666 0q341.333333 0 341.333334 341.333334l0 170.666666q0 341.333333-341.333334 341.333334l-170.666666 0q-341.333333 0-341.333334-341.333334l0-170.666666q0-341.333333 341.333334-341.333334Z" fill="#597EF7" p-id="46056"></path><path d="M572.032 419.626667l82.944 138.24 60.16-0.085334a36.949333 36.949333 0 0 1 2.858667 73.770667l-2.730667 0.085333h-16l16.554667 27.605334a36.949333 36.949333 0 0 1-61.696 40.533333l-1.706667-2.56-123.477333-205.781333 43.093333-71.808z m-168.234667 231.125333l-26.368 43.989333a36.949333 36.949333 0 0 1-64.810666-35.328l1.450666-2.688 3.498667-5.802666 86.229333-0.170667z m170.026667-355.114667c16.64 9.941333 22.613333 30.933333 14.122667 48l-1.450667 2.645334-127.232 211.968 81.962667-0.128 44.288 73.770666-276.608 0.554667a36.949333 36.949333 0 0 1-2.901334-73.770667l2.730667-0.085333 64.256-0.170667 98.133333-163.413333-27.733333-46.208a36.949333 36.949333 0 0 1 61.696-40.533333l1.664 2.56 7.424 12.373333 8.96-14.933333a36.949333 36.949333 0 0 1 50.688-12.629334z" fill="#C4DCFF" p-id="46057"></path></svg>
