<svg t="1699642241937" class="icon" viewBox="0 0 1064 1024" version="1.1" xmlns="http://www.w3.org/2000/svg" p-id="20222" width="16" height="16"><path d="M665.96864 0l-22.77376 122.88H983.04a81.92 81.92 0 0 1 81.92 81.92v737.28a81.92 81.92 0 0 1-81.92 81.92H379.78112l22.77376-122.88H81.92a81.92 81.92 0 0 1-81.92-81.92V81.92a81.92 81.92 0 0 1 81.92-81.92h584.04864zM983.04 163.84h-347.46368L498.8928 901.12h-54.6816l-15.19616 81.92H983.04a40.96 40.96 0 0 0 40.96-40.96V204.8a40.96 40.96 0 0 0-40.96-40.96z m-190.34112 235.1104v67.1744h139.50976v191.81568h-41.24672v-21.62688h-98.304v131.2768h-42.3936v-131.2768h-97.8944v21.62688H611.1232v-191.77472h139.14112V398.9504h42.43456z m-42.43456 107.3152h-97.8944v89.98912h97.8944v-90.03008z m140.6976 0h-98.304v89.98912h98.304v-90.03008zM259.19488 321.9456H81.92v245.76h183.0912v-34.4064H122.22464v-74.3424h128.73728v-34.4064H122.18368V356.352h137.0112v-34.4064z m132.17792 62.99648c-10.6496 0-20.31616 2.048-29.2864 6.5536-8.6016 4.096-16.50688 10.6496-23.38816 18.92352v-20.6848H299.4176v177.9712h39.23968v-107.02848c1.39264-14.1312 6.18496-25.14944 14.45888-32.72704a35.92192 35.92192 0 0 1 25.47712-10.32192c26.8288 0 40.26368 14.45888 40.26368 43.70432v106.37312h39.23968v-109.7728c0-48.90624-22.36416-72.99072-66.7648-72.99072z" fill="#000000" p-id="20223"></path></svg>
