<svg t="1700752112963" class="icon" viewBox="0 0 1024 1024" version="1.1" xmlns="http://www.w3.org/2000/svg" p-id="39128" width="16" height="16"><path d="M106.155582 545.796118m44.261862-121.200235l110.491734-302.554468q44.261862-121.200235 165.462097-76.938373l310.515002 113.39889q121.200235 44.261862 76.938374 165.462097l-110.491734 302.554468q-44.261862 121.200235-165.462097 76.938374l-310.515003-113.398891q-121.200235-44.261862-76.938373-165.462097Z" fill="#0F62FE" p-id="39129"></path><path d="M11.66756 242.959786m149.619303 0l647.892762 0q149.619303 0 149.619303 149.619302l0 481.801609q0 149.619303-149.619303 149.619303l-647.892762 0q-149.619303 0-149.619303-149.619303l0-481.801609q0-149.619303 149.619303-149.619302Z" fill="#C1D0FF" fill-opacity=".4" p-id="39130"></path><path d="M645.83378 632.793566c0-62.163389 50.394252-112.557641 112.557641-112.557641h231.978552c12.130145 0 21.962466 9.832322 21.962467 21.962466v183.935657c0 12.130145-9.832322 21.962466-21.962467 21.962467H758.391421c-62.163389 0-112.557641-50.394252-112.557641-112.557641v-2.745308z" fill="#0F62FE" fill-opacity=".5" p-id="39131"></path><path d="M750.155496 634.16622m-54.906166 0a54.906166 54.906166 0 1 0 109.812332 0 54.906166 54.906166 0 1 0-109.812332 0Z" fill="#FFFFFF" p-id="39132"></path><path d="M139.324397 361.008043m45.983914 0l292.375335 0q45.983914 0 45.983914 45.983914l0 0q0 45.983914-45.983914 45.983914l-292.375335 0q-45.983914 0-45.983914-45.983914l0 0q0-45.983914 45.983914-45.983914Z" fill="#FFFFFF" p-id="39133"></path></svg>
