<svg t="1701003284698" class="icon" viewBox="0 0 1024 1024" version="1.1" xmlns="http://www.w3.org/2000/svg" p-id="1104" width="25" height="25"><path d="M908.2368 463.8208l-156.5696 441.9072a102.4 102.4 0 0 1-130.816 61.952l-369.152-132.8128a102.0928 102.0928 0 0 1-55.1424-144.896L235.008 619.52l278.7328 131.9936z" fill="#7A7AF9" p-id="1105"></path><path d="M117.2992 450.56l374.784-370.4832a95.0272 95.0272 0 0 1 75.5712-26.9824l271.36 25.6a93.6448 93.6448 0 0 1 84.6336 87.04l17.152 259.7376a94.976 94.976 0 0 1-27.6992 73.472L539.7504 870.4a103.424 103.424 0 0 1-145.664 0.3072l-276.48-273.3568A103.3728 103.3728 0 0 1 117.2992 450.56z" fill="#CCDAFF" p-id="1106"></path><path d="M767.0784 227.2256m-60.1088 0a60.1088 60.1088 0 1 0 120.2176 0 60.1088 60.1088 0 1 0-120.2176 0Z" fill="#7A7AF9" p-id="1107"></path><path d="M696.32 415.5392l-117.76-4.2496-4.4032-116.224a33.28 33.28 0 0 0-66.56 2.56l3.584 94.9248-37.376-37.7856a33.28 33.28 0 0 0-47.3088 46.848l57.4976 58.2656L450.56 493.8752 393.1136 435.9168a33.28 33.28 0 0 0-47.2576 46.848l58.0096 58.5216-35.84 36.608a33.28 33.28 0 0 0 23.7568 56.6272 32.9728 32.9728 0 0 0 23.5008-9.8816l35.2768-35.84 56.32 56.32a33.28 33.28 0 0 0 47.3088-46.848l-56.32-57.0368 33.4336-33.9456 56.32 56.7296a33.28 33.28 0 1 0 47.2576-46.848l-38.144-38.5536 97.6384 3.5328h1.2288a33.28 33.28 0 0 0 1.1776-66.56z" fill="#7A7AF9" p-id="1108"></path></svg>
