<svg t="1700752797946" class="icon" viewBox="0 0 1024 1024" version="1.1" xmlns="http://www.w3.org/2000/svg" p-id="42192" width="25" height="25"><path d="M686.2848 899.1744H236.9024c-83.2512 0-150.784-67.4816-150.784-150.784V275.6096c0-83.2512 67.4816-150.784 150.784-150.784h449.3824c83.2512 0 150.784 67.4816 150.784 150.784v472.7808c0 83.2512-67.5328 150.784-150.784 150.784z" fill="#CCDAFF" p-id="42193"></path><path d="M551.936 693.4528h326.144c38.9632 0 70.6048-31.5904 70.6048-70.6048v-221.696c0-38.9632-31.5904-70.6048-70.6048-70.6048h-326.144c-93.8496 0-169.9328 76.0832-169.9328 169.9328v23.04c0 93.8496 76.0832 169.9328 169.9328 169.9328z" fill="#7A7AF9" p-id="42194"></path><path d="M544.6144 512m-74.6496 0a74.6496 74.6496 0 1 0 149.2992 0 74.6496 74.6496 0 1 0-149.2992 0Z" fill="#CCDAFF" p-id="42195"></path></svg>
