<svg t="1700841350096" class="icon" viewBox="0 0 1024 1024" version="1.1" xmlns="http://www.w3.org/2000/svg" p-id="2880" width="14" height="14"><path d="M167.184452 773.222744h438.856152c92.368771 0 167.183296-74.814525 167.183296-167.183296V167.183296c0-92.368771-74.814525-167.183296-167.183296-167.183296H167.184452C74.815681 0 0.001156 74.814525 0.001156 167.183296v438.856152c0 92.368771 74.814525 167.183296 167.183296 167.183296z" fill="#7E7E7E" p-id="2881"></path><path d="M758.072914 97.488759zM606.040604 0c67.500256 0 125.596451 39.915012 152.03231 97.488759 9.717529 21.211381 15.150986 44.826021 15.150986 69.590047V606.039448c0 92.368771-74.814525 167.183296-167.183296 167.183296H484.832714C455.993596 699.035156 438.857308 606.770875 438.857308 506.774366c0-19.435058 0.626937-38.661137 1.880812-57.469258H344.816704c-11.493852 0-20.897912-9.40406-20.897912-20.897912v-20.897912h0.208979c1.358364-71.15739 9.61304-141.269885 24.450557-206.993818 16.300371-72.306776 40.123991-137.926219 70.216984-193.305686 1.358364-2.40326 2.612239-4.80652 3.970604-7.20978z" fill="#E2E6EB" p-id="2882"></path><path d="M193.306842 303.019724c-8.672633 0-15.673434-7.000801-15.673434-15.673434v-52.24478c0-8.672633 7.000801-15.673434 15.673434-15.673434s15.673434 7.000801 15.673434 15.673434v52.24478c0 8.672633-7.000801 15.673434-15.673434 15.673434z m386.611372 0c-8.672633 0-15.673434-7.000801-15.673434-15.673434v-52.24478c0-8.672633 7.000801-15.673434 15.673434-15.673434s15.673434 7.000801 15.673434 15.673434v52.24478c0 8.672633-7.000801 15.673434-15.673434 15.673434zM328.202864 631.325922c-53.289676-11.075893-111.908319-41.586845-175.75144-91.428365a15.5167 15.5167 0 1 1 19.0171-24.555047c59.977007 46.915812 114.416068 75.336973 163.003714 85.47246 88.189189 18.285673 177.214294-10.030998 266.970825-85.158991A15.5167 15.5167 0 0 1 626.938516 527.567789c0 4.80652-2.194281 9.195081-5.642436 12.016299-97.488759 81.501857-195.186498 112.012808-293.093216 91.741834z" fill="#414141" p-id="2883"></path><path d="M417.959396 1023.997688h438.856152c92.368771 0 167.183296-74.814525 167.183296-167.183296V417.95824c0-92.368771-74.814525-167.183296-167.183296-167.183296H417.959396c-92.368771 0-167.183296 74.814525-167.183296 167.183296v438.856152c0 92.368771 74.814525 167.183296 167.183296 167.183296z" fill="#1BA4F8" p-id="2884"></path><path d="M1008.847858 348.263704zM856.815548 250.774944c67.500256 0 125.596451 39.915012 152.03231 97.48876 9.717529 21.211381 15.150986 44.826021 15.150986 69.590046V856.814392c0 92.368771-74.814525 167.183296-167.183296 167.183296H735.607658C706.76854 949.810101 689.632252 857.545819 689.632252 757.54931c0-19.435058 0.626937-38.661137 1.880812-57.469258H595.591648c-11.493852 0-20.897912-9.40406-20.897912-20.897912v-20.897912h0.208979c1.358364-71.15739 9.61304-141.269885 24.450557-206.993818 16.300371-72.306776 40.123991-137.926219 70.216985-193.305686 1.358364-2.40326 2.612239-4.80652 3.970603-7.20978z" fill="#E2E6EB" p-id="2885"></path><path d="M444.081786 553.794668c-8.672633 0-15.673434-7.000801-15.673434-15.673434v-52.24478c0-8.672633 7.000801-15.673434 15.673434-15.673434s15.673434 7.000801 15.673434 15.673434v52.24478c0 8.672633-7.000801 15.673434-15.673434 15.673434z m386.611372 0c-8.672633 0-15.673434-7.000801-15.673434-15.673434v-52.24478c0-8.672633 7.000801-15.673434 15.673434-15.673434s15.673434 7.000801 15.673434 15.673434v52.24478c0 8.672633-7.000801 15.673434-15.673434 15.673434zM578.977808 882.100866c-53.289676-11.075893-111.908319-41.586845-175.75144-91.428365a15.5167 15.5167 0 1 1 19.0171-24.555047c59.977007 46.915812 114.416068 75.336973 163.003714 85.47246 88.189189 18.285673 177.214294-10.030998 266.970825-85.158991A15.5167 15.5167 0 0 1 877.71346 778.342733c0 4.80652-2.194281 9.195081-5.642436 12.016299-97.488759 81.501857-195.186498 112.012808-293.093216 91.741834z" fill="#414141" p-id="2886"></path><path d="M194.038269 847.201353h-18.808121c-54.961509 0-97.27978-23.405661-122.461764-68.649641-6.269374-7.836717-10.971404-6.269374-10.971404 0 0 81.188388 69.067599 173.243691 149.106602 173.24369h1.567343v51.617843c0 18.703631 10.971404 26.540348 25.077495 15.568944l127.163794-101.459363c14.106091-10.971404 14.106091-28.107692 0-39.079095l-125.596451-99.892019c-12.538747-10.971404-25.077494 0-25.077494 15.568944v53.080697z" fill="#434545" p-id="2887"></path></svg>
