<svg t="1700839400827" class="icon" viewBox="0 0 1024 1024" version="1.1" xmlns="http://www.w3.org/2000/svg" p-id="27747" width="25" height="25"><path d="M794.624 572.416c-17.92-13.824-29.696-35.84-29.696-60.416 0-24.576 11.776-46.592 29.696-60.416 22.016-17.408 31.232-46.592 19.968-72.192-9.728-22.016-22.016-43.008-36.352-61.952-15.872-21.504-44.544-30.72-68.608-19.968-22.016 10.24-48.128 9.728-71.168-3.072-21.504-12.288-34.816-33.28-37.888-55.808-4.096-27.648-24.576-50.176-52.224-53.248-11.776-1.536-24.064-2.048-36.352-2.048-12.288 0-24.576 0.512-36.352 2.048-27.648 3.072-48.128 25.6-52.224 53.248-3.072 22.528-16.384 43.52-37.888 55.808-22.528 12.8-49.152 13.312-71.168 3.072C290.304 286.72 261.632 295.936 245.76 317.44c-14.336 18.944-26.112 39.936-36.352 61.952-11.264 25.6-2.56 54.784 19.968 72.192 17.92 13.824 29.696 35.84 29.696 60.416 0 24.576-11.776 46.592-29.696 60.416-22.016 17.408-31.232 46.592-19.968 72.192 9.728 22.016 22.016 43.008 36.352 61.952 15.872 21.504 44.544 30.72 68.608 19.968 22.016-10.24 48.128-9.728 71.168 3.072 21.504 12.288 34.816 33.28 37.888 55.808 4.096 27.648 24.576 50.176 52.224 53.248 11.776 1.536 24.064 2.048 36.352 2.048 12.288 0 24.576-0.512 36.352-2.048 27.648-3.072 48.128-25.6 52.224-53.248 3.072-22.528 16.384-43.52 37.888-55.808 22.528-12.8 49.152-13.312 71.168-3.072 24.064 11.264 52.736 1.536 68.608-19.968 14.336-18.944 26.112-39.936 36.352-61.952 11.264-25.6 2.048-54.784-19.968-72.192z" fill="#CCDAFF" p-id="27748"></path><path d="M430.08 512a81.92 81.92 0 1 0 163.84 0 81.92 81.92 0 1 0-163.84 0Z" fill="#7A7AF9" p-id="27749"></path></svg>
