<svg t="1700840182854" class="icon" viewBox="0 0 1024 1024" version="1.1" xmlns="http://www.w3.org/2000/svg" p-id="121880" width="25" height="25"><path d="M846.6432 518.7584c1.024-43.9808 20.48-70.4512 43.4176-86.3232a108.7488 108.7488 0 0 0 35.84-141.5168l-3.8912-7.0144a109.3632 109.3632 0 0 0-136.192-46.7456 110.7456 110.7456 0 0 1-151.296-89.5488v-1.536a107.1616 107.1616 0 0 0-102.4-97.28h-26.9824a107.1104 107.1104 0 0 0-102.4 97.28v1.7408a110.848 110.848 0 0 1-150.6304 89.9072 111.0528 111.0528 0 0 0-137.5744 47.5136c-1.28 2.2528-2.5088 4.5056-3.7376 6.7584a111.7696 111.7696 0 0 0 34.56 143.872c22.5792 16.2816 41.2672 42.1376 41.2672 82.8928 0 37.2224-19.8656 62.6176-43.2128 79.5648-42.3936 30.72-57.5488 87.552-32.6144 133.6832l3.3792 6.144c26.112 46.5408 83.6096 67.4816 132.1472 45.3632a109.9264 109.9264 0 0 1 52.5824-9.6256 111.2064 111.2064 0 0 1 103.3728 99.6352v1.8432a107.52 107.52 0 0 0 102.912 99.7376H530.944A107.52 107.52 0 0 0 634.0608 875.52v-1.5872a110.7456 110.7456 0 0 1 156.2624-90.0096 99.7376 99.7376 0 0 0 128.9216-39.1168c1.3824-2.3552 2.7648-4.7616 4.096-7.168a100.0448 100.0448 0 0 0-31.0784-132.4032 95.3344 95.3344 0 0 1-45.6192-86.4768z" fill="#CCDAFF" p-id="121881"></path><path d="M518.6048 512m-173.568 0a173.568 173.568 0 1 0 347.136 0 173.568 173.568 0 1 0-347.136 0Z" fill="#7A7AF9" p-id="121882"></path></svg>
