<?xml version="1.0" standalone="no"?><!DOCTYPE svg PUBLIC "-//W3C//DTD SVG 1.1//EN" "http://www.w3.org/Graphics/SVG/1.1/DTD/svg11.dtd"><svg t="1701238802484" class="icon" viewBox="0 0 1024 1024" version="1.1" xmlns="http://www.w3.org/2000/svg" p-id="1545" xmlns:xlink="http://www.w3.org/1999/xlink" width="25" height="25"><path d="M203.6224 393.1648V296.96S221.3376 48.6912 512 48.6912s312.8832 228.7616 312.8832 254.9248v89.5488s6.5536 59.2384 60.16 118.8352 40.4992 216.4736-98.048 259.584c-103.2704 24.832-198.7072 20.9408-257.536 20.9408s-190.8736-5.12-245.76-14.3872S56.32 703.3856 147.7632 512c18.2784-30.72 55.8592-76.3392 55.8592-118.8352z" fill="#CCDAFF" p-id="1546"></path><path d="M408.576 828.0064h229.5296a35.84 35.84 0 0 1 33.6384 47.5136c-14.6432 42.2912-52.48 97.5872-150.1184 97.5872-99.328 0-134.7072-57.1904-147.3536-99.7376a35.84 35.84 0 0 1 34.304-45.3632z" fill="#7A7AF9" p-id="1547"></path></svg>